<svg width="2272" height="1871" viewBox="0 0 2272 1871" fill="none" xmlns="http://www.w3.org/2000/svg">
<g clip-path="url(#clip0_152_19)">
<rect width="2272" height="1871" fill="#647C64"/>
<rect width="2272" height="1871" fill="url(#paint0_linear_152_19)" fill-opacity="0.5"/>
<path d="M2796 1873C2796 1804.06 2782.42 1735.79 2756.04 1672.09C2729.65 1608.4 2690.98 1550.52 2642.23 1501.77C2593.48 1453.02 2535.6 1414.35 2471.91 1387.96C2408.21 1361.58 2339.94 1348 2271 1348C2202.06 1348 2133.79 1361.58 2070.09 1387.96C2006.4 1414.35 1948.52 1453.02 1899.77 1501.77C1851.02 1550.52 1812.35 1608.4 1785.96 1672.09C1759.58 1735.79 1746 1804.06 1746 1873L2271 1873H2796Z" fill="#DDEAE3"/>
<path d="M2856 1892.5C2856 1820.21 2842.03 1748.62 2814.89 1681.83C2787.76 1615.04 2747.98 1554.36 2697.84 1503.24C2647.69 1452.12 2588.16 1411.57 2522.65 1383.9C2457.13 1356.24 2386.91 1342 2316 1342C2245.09 1342 2174.87 1356.24 2109.35 1383.9C2043.84 1411.57 1984.31 1452.12 1934.16 1503.24C1884.02 1554.36 1844.24 1615.04 1817.11 1681.83C1789.97 1748.62 1776 1820.21 1776 1892.5L2316 1892.5H2856Z" fill="#506850"/>
<path d="M2815 1871C2815 1802.06 2801.42 1733.79 2775.04 1670.09C2748.65 1606.4 2709.98 1548.52 2661.23 1499.77C2612.48 1451.02 2554.6 1412.35 2490.91 1385.96C2427.21 1359.58 2358.94 1346 2290 1346C2221.06 1346 2152.79 1359.58 2089.09 1385.96C2025.4 1412.35 1967.52 1451.02 1918.77 1499.77C1870.02 1548.52 1831.35 1606.4 1804.96 1670.09C1778.58 1733.79 1765 1802.06 1765 1871L2290 1871H2815Z" fill="#F1FEF7"/>
<path d="M2815 1871C2815 1802.06 2801.42 1733.79 2775.04 1670.09C2748.65 1606.4 2709.98 1548.52 2661.23 1499.77C2612.48 1451.02 2554.6 1412.35 2490.91 1385.96C2427.21 1359.58 2358.94 1346 2290 1346C2221.06 1346 2152.79 1359.58 2089.09 1385.96C2025.4 1412.35 1967.52 1451.02 1918.77 1499.77C1870.02 1548.52 1831.35 1606.4 1804.96 1670.09C1778.58 1733.79 1765 1802.06 1765 1871L2290 1871H2815Z" fill="url(#paint1_linear_152_19)"/>
<path d="M3278.88 1632.72C3319.19 1726.22 3342.92 1825.34 3349.27 1926H2399.5L1449.73 1926C1456.08 1825.34 1479.81 1726.22 1520.12 1632.72C1567.76 1522.23 1637.65 1421.68 1725.9 1336.89C1814.16 1252.09 1919.06 1184.72 2034.67 1138.71C2150.27 1092.7 2274.25 1069 2399.5 1069C2524.75 1069 2648.73 1092.7 2764.33 1138.71C2879.94 1184.72 2984.84 1252.09 3073.1 1336.89C3161.35 1421.68 3231.24 1522.23 3278.88 1632.72Z" stroke="#506850" stroke-width="110"/>
<path d="M3237.53 1664.54C3279.65 1765.98 3304.26 1873.65 3310.45 1983H2333.5L1356.55 1983C1362.74 1873.65 1387.35 1765.98 1429.47 1664.54C1478.63 1546.14 1550.69 1438.55 1641.55 1347.91C1732.4 1257.27 1840.27 1185.37 1959 1136.31C2077.73 1087.25 2204.98 1062 2333.5 1062C2462.02 1062 2589.27 1087.25 2708 1136.31C2826.73 1185.37 2934.6 1257.27 3025.45 1347.91C3116.31 1438.55 3188.37 1546.14 3237.53 1664.54Z" stroke="#DDEAE3" stroke-width="110"/>
<path d="M3261.64 1664.52C3303.7 1765.96 3328.27 1873.64 3334.45 1983H2359L1383.55 1983C1389.73 1873.64 1414.3 1765.96 1456.36 1664.52C1505.46 1546.11 1577.42 1438.52 1668.14 1347.88C1758.86 1257.25 1866.56 1185.35 1985.1 1136.3C2103.64 1087.25 2230.69 1062 2359 1062C2487.31 1062 2614.36 1087.25 2732.9 1136.3C2851.44 1185.35 2959.14 1257.25 3049.86 1347.88C3140.58 1438.51 3212.54 1546.11 3261.64 1664.52Z" stroke="#F1FEF7" stroke-width="110"/>
<path d="M3261.64 1664.52C3303.7 1765.96 3328.27 1873.64 3334.45 1983H2359L1383.55 1983C1389.73 1873.64 1414.3 1765.96 1456.36 1664.52C1505.46 1546.11 1577.42 1438.52 1668.14 1347.88C1758.86 1257.25 1866.56 1185.35 1985.1 1136.3C2103.64 1087.25 2230.69 1062 2359 1062C2487.31 1062 2614.36 1087.25 2732.9 1136.3C2851.44 1185.35 2959.14 1257.25 3049.86 1347.88C3140.58 1438.51 3212.54 1546.11 3261.64 1664.52Z" stroke="url(#paint2_linear_152_19)" stroke-width="110"/>
<path d="M3540.47 1584.9C3599.26 1728.42 3632.78 1881.09 3639.67 2036H2321.5L1003.33 2036C1010.22 1881.09 1043.74 1728.42 1102.53 1584.9C1168.9 1422.88 1266.15 1275.71 1388.71 1151.77C1511.27 1027.84 1656.73 929.565 1816.77 862.529C1976.81 795.494 2148.31 761 2321.5 761C2494.69 761 2666.19 795.494 2826.23 862.529C2986.27 929.565 3131.73 1027.84 3254.29 1151.77C3376.85 1275.71 3474.1 1422.88 3540.47 1584.9Z" stroke="#506850" stroke-width="120"/>
<path d="M3461.43 1589.83C3519.41 1728.01 3552.56 1874.93 3559.59 2024H2251.5L943.413 2024C950.437 1874.93 983.594 1728.01 1041.57 1589.83C1107.32 1433.13 1203.71 1290.7 1325.27 1170.69C1446.83 1050.68 1591.19 955.441 1750.12 890.451C1909.06 825.46 2079.43 792 2251.5 792C2423.57 792 2593.94 825.46 2752.88 890.451C2911.81 955.441 3056.17 1050.68 3177.73 1170.69C3299.29 1290.7 3395.68 1433.13 3461.43 1589.83Z" stroke="#DDEAE3" stroke-width="120"/>
<path d="M3508.53 1591.25C3567.19 1732.78 3600.67 1883.28 3607.63 2036H2289L970.366 2036C977.326 1883.28 1010.81 1732.78 1069.47 1591.25C1135.81 1431.23 1233.03 1285.82 1355.6 1163.34C1478.17 1040.86 1623.69 943.698 1783.84 877.409C1944 811.119 2115.65 777 2289 777C2462.35 777 2634 811.119 2794.16 877.409C2954.31 943.698 3099.83 1040.86 3222.4 1163.34C3344.97 1285.82 3442.19 1431.23 3508.53 1591.25Z" stroke="#F1FEF7" stroke-width="120"/>
<path d="M3508.53 1591.25C3567.19 1732.78 3600.67 1883.28 3607.63 2036H2289L970.366 2036C977.326 1883.28 1010.81 1732.78 1069.47 1591.25C1135.81 1431.23 1233.03 1285.82 1355.6 1163.34C1478.17 1040.86 1623.69 943.698 1783.84 877.409C1944 811.119 2115.65 777 2289 777C2462.35 777 2634 811.119 2794.16 877.409C2954.31 943.698 3099.83 1040.86 3222.4 1163.34C3344.97 1285.82 3442.19 1431.23 3508.53 1591.25Z" stroke="url(#paint3_linear_152_19)" stroke-width="120"/>
<path d="M3847 1555.55C3923.24 1740.45 3966.1 1937.34 3973.75 2137H2294L614.245 2137C621.898 1937.34 664.759 1740.45 740.999 1555.55C825.5 1350.61 949.349 1164.42 1105.46 1007.59C1261.57 850.767 1446.88 726.384 1650.81 641.527C1854.73 556.671 2073.29 513 2294 513C2514.71 513 2733.27 556.671 2937.19 641.527C3141.12 726.383 3326.43 850.767 3482.54 1007.59C3638.65 1164.42 3762.5 1350.61 3847 1555.55Z" stroke="#506850" stroke-width="130"/>
<path d="M3941.11 1504.25C4020.56 1696.54 4065.1 1901.34 4072.8 2109H2328.5L584.204 2109C591.902 1901.34 636.437 1696.54 715.89 1504.25C803.622 1291.92 932.21 1099 1094.3 936.506C1256.39 774.011 1448.82 645.122 1660.58 557.189C1872.34 469.256 2099.3 424 2328.5 424C2557.7 424 2784.66 469.256 2996.42 557.189C3208.18 645.122 3400.61 774.011 3562.7 936.506C3724.79 1099 3853.38 1291.92 3941.11 1504.25Z" stroke="#DDEAE3" stroke-width="130"/>
<path d="M3943.32 1518.12C4021.28 1706.02 4065.05 1906.11 4072.76 2109H2357L641.235 2109C648.948 1906.11 692.72 1706.02 770.684 1518.12C856.962 1310.17 983.426 1121.22 1142.86 962.058C1302.29 802.893 1491.57 676.631 1699.9 590.485C1908.22 504.34 2131.51 460 2357 460C2582.49 460 2805.78 504.34 3014.1 590.485C3222.43 676.631 3411.71 802.893 3571.14 962.058C3730.57 1121.22 3857.04 1310.17 3943.32 1518.12Z" stroke="#F1FEF7" stroke-width="130"/>
<path d="M3943.32 1518.12C4021.28 1706.02 4065.05 1906.11 4072.76 2109H2357L641.235 2109C648.948 1906.11 692.72 1706.02 770.684 1518.12C856.962 1310.17 983.426 1121.22 1142.86 962.058C1302.29 802.893 1491.57 676.631 1699.9 590.485C1908.22 504.34 2131.51 460 2357 460C2582.49 460 2805.78 504.34 3014.1 590.485C3222.43 676.631 3411.71 802.893 3571.14 962.058C3730.57 1121.22 3857.04 1310.17 3943.32 1518.12Z" stroke="url(#paint4_linear_152_19)" stroke-width="130"/>
<path d="M4196 1492.47C4294.67 1730.4 4349.43 1983.99 4357.85 2241H2217.5L77.147 2241C85.5718 1983.99 140.335 1730.4 239.001 1492.47C346.615 1232.96 504.35 997.155 703.203 798.527C902.056 599.898 1138.13 442.334 1397.96 334.832C1657.78 227.331 1936.26 172 2217.5 172C2498.74 172 2777.22 227.331 3037.04 334.832C3296.87 442.333 3532.94 599.898 3731.8 798.526C3930.65 997.155 4088.39 1232.96 4196 1492.47Z" stroke="#506850" stroke-width="140"/>
<path d="M4371 1437.47C4469.67 1675.4 4524.43 1928.99 4532.85 2186H2392.5L252.147 2186C260.572 1928.99 315.335 1675.4 414.001 1437.47C521.615 1177.96 679.35 942.155 878.203 743.527C1077.06 544.898 1313.13 387.334 1572.96 279.832C1832.78 172.331 2111.26 117 2392.5 117C2673.74 117 2952.22 172.331 3212.04 279.832C3471.87 387.333 3707.94 544.898 3906.8 743.526C4105.65 942.155 4263.39 1177.96 4371 1437.47Z" stroke="#DDEAE3" stroke-width="140"/>
<path d="M4268 1492.47C4366.67 1730.4 4421.43 1983.99 4429.85 2241H2289.5L149.147 2241C157.572 1983.99 212.335 1730.4 311.001 1492.47C418.615 1232.96 576.35 997.155 775.203 798.527C974.056 599.898 1210.13 442.334 1469.96 334.832C1729.78 227.331 2008.26 172 2289.5 172C2570.74 172 2849.22 227.331 3109.04 334.832C3368.87 442.333 3604.94 599.898 3803.8 798.526C4002.65 997.155 4160.39 1232.96 4268 1492.47Z" stroke="#F1FEF7" stroke-width="140"/>
<path d="M4268 1492.47C4366.67 1730.4 4421.43 1983.99 4429.85 2241H2289.5L149.147 2241C157.572 1983.99 212.335 1730.4 311.001 1492.47C418.615 1232.96 576.35 997.155 775.203 798.527C974.056 599.898 1210.13 442.334 1469.96 334.832C1729.78 227.331 2008.26 172 2289.5 172C2570.74 172 2849.22 227.331 3109.04 334.832C3368.87 442.333 3604.94 599.898 3803.8 798.526C4002.65 997.155 4160.39 1232.96 4268 1492.47Z" stroke="url(#paint5_linear_152_19)" stroke-width="140"/>
<path d="M4864.62 1414.75C4992.59 1723.29 5062.51 2052.54 5071.1 2386H2347.5L-376.098 2386C-367.506 2052.54 -297.587 1723.29 -169.622 1414.75C-32.7098 1084.63 167.967 784.666 420.956 531.994C673.946 279.321 974.292 78.8858 1304.85 -57.8643C1635.41 -194.614 1989.7 -265 2347.5 -265C2705.3 -265 3059.59 -194.615 3390.15 -57.8644C3720.71 78.8857 4021.05 279.321 4274.04 531.993C4527.03 784.666 4727.71 1084.63 4864.62 1414.75Z" stroke="#506850" stroke-width="140"/>
<path d="M4924.62 1471.75C5052.59 1780.29 5122.51 2109.54 5131.1 2443H2407.5L-316.098 2443C-307.506 2109.54 -237.587 1780.29 -109.622 1471.75C27.2902 1141.63 227.967 841.666 480.956 588.994C733.946 336.321 1034.29 135.886 1364.85 -0.864288C1695.41 -137.614 2049.7 -208 2407.5 -208C2765.3 -208 3119.59 -137.615 3450.15 -0.86441C3780.71 135.886 4081.05 336.321 4334.04 588.993C4587.03 841.666 4787.71 1141.63 4924.62 1471.75Z" stroke="#DDEAE3" stroke-width="140"/>
<path d="M4969.62 1377.75C5097.59 1686.29 5167.51 2015.54 5176.1 2349H2452.5L-271.098 2349C-262.506 2015.54 -192.587 1686.29 -64.6217 1377.75C72.2902 1047.63 272.967 747.666 525.956 494.994C778.946 242.321 1079.29 41.8858 1409.85 -94.8643C1740.41 -231.614 2094.7 -302 2452.5 -302C2810.3 -302 3164.59 -231.615 3495.15 -94.8644C3825.71 41.8857 4126.05 242.321 4379.04 494.993C4632.03 747.666 4832.71 1047.63 4969.62 1377.75Z" stroke="#F1FEF7" stroke-width="140"/>
<path d="M4969.62 1377.75C5097.59 1686.29 5167.51 2015.54 5176.1 2349H2452.5L-271.098 2349C-262.506 2015.54 -192.587 1686.29 -64.6217 1377.75C72.2902 1047.63 272.967 747.666 525.956 494.994C778.946 242.321 1079.29 41.8858 1409.85 -94.8643C1740.41 -231.614 2094.7 -302 2452.5 -302C2810.3 -302 3164.59 -231.615 3495.15 -94.8644C3825.71 41.8857 4126.05 242.321 4379.04 494.993C4632.03 747.666 4832.71 1047.63 4969.62 1377.75Z" stroke="url(#paint6_linear_152_19)" stroke-width="140"/>
<path d="M5241.93 1280.5C5389.5 1636.36 5469.54 2016.32 5478.21 2401H2364.5L-749.212 2401C-740.544 2016.32 -660.501 1636.36 -512.933 1280.5C-356.421 903.059 -127.016 560.105 162.189 271.218C451.393 -17.6686 794.733 -246.83 1172.61 -403.179C1550.48 -559.527 1955.49 -640 2364.5 -640C2773.51 -640 3178.52 -559.527 3556.39 -403.179C3934.27 -246.83 4277.61 -17.6688 4566.81 271.218C4856.02 560.104 5085.42 903.058 5241.93 1280.5Z" stroke="#506850" stroke-width="140"/>
<path d="M5329.94 1301.89C5477.5 1657.63 5557.54 2037.45 5566.21 2422H2452.5L-661.211 2422C-652.541 2037.45 -572.499 1657.63 -424.936 1301.89C-268.426 924.571 -39.0225 581.728 250.181 292.933C539.384 4.13806 882.724 -224.952 1260.6 -381.252C1638.48 -537.552 2043.48 -618 2452.5 -618C2861.52 -618 3266.52 -537.552 3644.4 -381.252C4022.28 -224.952 4365.62 4.13794 4654.82 292.933C4944.02 581.728 5173.43 924.571 5329.94 1301.89Z" stroke="#DDEAE3" stroke-width="140"/>
<path d="M5207.93 1354.5C5355.5 1710.36 5435.54 2090.32 5444.21 2475H2330.5L-783.212 2475C-774.544 2090.32 -694.501 1710.36 -546.933 1354.5C-390.421 977.059 -161.016 634.105 128.189 345.218C417.393 56.3314 760.733 -172.83 1138.61 -329.179C1516.48 -485.527 1921.49 -566 2330.5 -566C2739.51 -566 3144.52 -485.527 3522.39 -329.179C3900.27 -172.83 4243.61 56.3312 4532.81 345.218C4822.02 634.104 5051.42 977.058 5207.93 1354.5Z" stroke="#F1FEF7" stroke-width="140"/>
<path d="M5207.93 1354.5C5355.5 1710.36 5435.54 2090.32 5444.21 2475H2330.5L-783.212 2475C-774.544 2090.32 -694.501 1710.36 -546.933 1354.5C-390.421 977.059 -161.016 634.105 128.189 345.218C417.393 56.3314 760.733 -172.83 1138.61 -329.179C1516.48 -485.527 1921.49 -566 2330.5 -566C2739.51 -566 3144.52 -485.527 3522.39 -329.179C3900.27 -172.83 4243.61 56.3312 4532.81 345.218C4822.02 634.104 5051.42 977.058 5207.93 1354.5Z" stroke="url(#paint7_linear_152_19)" stroke-width="140"/>
</g>
<defs>
<linearGradient id="paint0_linear_152_19" x1="1136" y1="0" x2="1136" y2="1873.6" gradientUnits="userSpaceOnUse">
<stop stop-color="#F1FEF7"/>
<stop offset="0.9999" stop-opacity="0"/>
<stop offset="1" stop-color="#F1FEF7"/>
</linearGradient>
<linearGradient id="paint1_linear_152_19" x1="2290" y1="1346" x2="2290" y2="2396" gradientUnits="userSpaceOnUse">
<stop stop-color="#647C64" stop-opacity="0"/>
<stop offset="1" stop-color="#647C64"/>
</linearGradient>
<linearGradient id="paint2_linear_152_19" x1="2359" y1="639.767" x2="2359" y2="2701.77" gradientUnits="userSpaceOnUse">
<stop stop-color="#647C64" stop-opacity="0"/>
<stop offset="1" stop-color="#647C64"/>
</linearGradient>
<linearGradient id="paint3_linear_152_19" x1="2289" y1="225.813" x2="2289" y2="2983.81" gradientUnits="userSpaceOnUse">
<stop stop-color="#647C64" stop-opacity="0"/>
<stop offset="1" stop-color="#647C64"/>
</linearGradient>
<linearGradient id="paint4_linear_152_19" x1="2357" y1="-238.664" x2="2357" y2="3319.34" gradientUnits="userSpaceOnUse">
<stop stop-color="#647C64" stop-opacity="0"/>
<stop offset="1" stop-color="#647C64"/>
</linearGradient>
<linearGradient id="paint5_linear_152_19" x1="2289.5" y1="-684.826" x2="2289.5" y2="3733.17" gradientUnits="userSpaceOnUse">
<stop stop-color="#647C64" stop-opacity="0"/>
<stop offset="1" stop-color="#647C64"/>
</linearGradient>
<linearGradient id="paint6_linear_152_19" x1="2452.5" y1="-1366.13" x2="2452.5" y2="4215.87" gradientUnits="userSpaceOnUse">
<stop stop-color="#647C64" stop-opacity="0"/>
<stop offset="1" stop-color="#647C64"/>
</linearGradient>
<linearGradient id="paint7_linear_152_19" x1="2330.5" y1="-1769.04" x2="2330.5" y2="4592.96" gradientUnits="userSpaceOnUse">
<stop stop-color="#647C64" stop-opacity="0"/>
<stop offset="1" stop-color="#647C64"/>
</linearGradient>
<clipPath id="clip0_152_19">
<rect width="2272" height="1871" fill="white"/>
</clipPath>
</defs>
</svg>
